#N canvas 35 23 1245 704 10;
#X text 56 60 Volume;
#X obj 22 344 float 0;
#X obj 47 98 hsl 128 15 0 127 0 0 empty empty empty -2 -8 0 10 -262144
-1 -1 8500 1;
#X obj 19 98 bng 15 250 50 0 empty empty empty 17 7 0 10 -262144 -1
-1;
#X text 19 60 Mute;
#X obj 702 512 osc~ 440;
#X obj 702 490 expr 440*(pow(2 \, (($f1-69)/12)));
#X obj 554 454 osc~ 440;
#X obj 554 431 expr 440*(pow(2 \, (($f1-69)/12)));
#X obj 269 335 osc~ 440;
#X obj 269 305 expr 440*(pow(2 \, (($f1-69)/12)));
#X obj 391 401 osc~ 440;
#X obj 391 379 expr 440*(pow(2 \, (($f1-69)/12)));
#X text 275 286 Root;
#X obj 269 98 hradio 15 1 0 12 empty empty empty 0 -8 0 10 -262144
-1 -1 4;
#X text 269 37 Root;
#X obj 702 470 + 12;
#X obj 554 410 + 7;
#X obj 391 357 + 4;
#X obj 509 99 bng 15 250 50 0 empty empty empty 17 7 0 10 -262144 -1
-1;
#X obj 470 97 bng 15 250 50 0 empty empty empty 17 7 0 10 -262144 -1
-1;
#X msg 468 191 4;
#X msg 498 191 7;
#X msg 536 191 7;
#X msg 506 191 3;
#X text 466 79 Maj;
#X text 504 80 min;
#X obj 544 99 bng 15 250 50 0 empty empty empty 17 7 0 10 -262144 -1
-1;
#X msg 528 231 3;
#X text 541 80 dim;
#X obj 579 99 bng 15 250 50 0 empty empty empty 17 7 0 10 -262144 -1
-1;
#X msg 576 191 4;
#X msg 606 191 8;
#X text 575 80 Aug;
#X msg 566 231 6;
#X floatatom 269 191 5 0 0 0 - - -, f 5;
#X msg 22 264 0;
#X obj 658 99 bng 15 250 50 0 empty empty empty 17 7 0 10 -262144 -1
-1;
#X obj 618 98 bng 15 250 50 0 empty empty empty 17 7 0 10 -262144 -1
-1;
#X msg 615 191 4;
#X msg 647 191 7;
#X msg 675 231 7;
#X msg 636 231 3;
#X obj 696 100 bng 15 250 50 0 empty empty empty 17 7 0 10 -262144
-1 -1;
#X obj 730 102 bng 15 250 50 0 empty empty empty 17 7 0 10 -262144
-1 -1;
#X text 612 80 Maj7;
#X text 650 80 min7;
#X text 687 80 Dom7;
#X msg 675 191 11;
#X msg 722 231 10;
#X msg 752 231 10;
#X msg 689 215 4;
#X msg 719 215 7;
#X msg 722 191 3;
#X text 719 80 dim7;
#X msg 752 191 6;
#X msg 782 191 9;
#X text 755 80 minMaj7;
#X obj 770 103 bng 15 250 50 0 empty empty empty 17 7 0 10 -262144
-1 -1;
#X msg 752 271 3;
#X msg 782 231 7;
#X msg 824 255 11;
#X obj 814 102 bng 15 250 50 0 empty empty empty 17 7 0 10 -262144
-1 -1;
#X text 812 80 1/2Dim;
#X msg 794 215 3;
#X msg 824 215 6;
#X msg 855 215 10;
#X text 620 60 Chord Quality;
#X text 947 60 Chord Extensions;
#X text 969 83 9th;
#X text 1080 79 11th;
#X text 1191 80 13th;
#X obj 969 355 osc~ 440;
#X obj 969 328 expr 440*(pow(2 \, (($f1-69)/12)));
#X text 1005 307 9th;
#X obj 971 99 tgl 15 0 empty empty empty 17 7 0 10 -262144 -1 -1 0
1;
#X obj 967 473 *~ 0;
#X msg 970 221 0;
#X msg 1000 220 1;
#X obj 969 198 select 0 1;
#X text 424 358 3rd;
#X text 589 411 5th;
#X obj 1197 98 tgl 15 0 empty empty empty 17 7 0 10 -262144 -1 -1 0
1;
#X obj 1085 98 tgl 15 0 empty empty empty 17 7 0 10 -262144 -1 -1 0
1;
#X obj 1104 397 osc~ 440;
#X obj 1104 375 expr 440*(pow(2 \, (($f1-69)/12)));
#X obj 1105 474 *~ 0;
#X msg 1083 223 0;
#X msg 1112 223 1;
#X obj 1083 198 select 0 1;
#X obj 1103 354 + 17;
#X text 1141 351 11th;
#X obj 970 304 + 14;
#X obj 226 98 vradio 15 1 0 10 empty empty empty 0 -8 0 10 -262144
-1 -1 5;
#X obj 190 276 * 12;
#X obj 205 320 bng 15 250 50 0 empty empty empty 17 7 0 10 -262144
-1 -1;
#X text 208 60 Octave;
#X obj 1239 455 osc~ 440;
#X obj 1239 432 expr 440*(pow(2 \, (($f1-69)/12)));
#X obj 1239 475 *~ 0;
#X msg 1197 223 0;
#X msg 1227 223 1;
#X obj 1196 198 select 0 1;
#X obj 1239 415 + 22;
#X msg 566 191 0;
#X msg 528 191 0;
#X msg 636 191 0;
#X msg 615 231 0;
#X obj 889 278 osc~ 440;
#X obj 889 259 expr 440*(pow(2 \, (($f1-69)/12)));
#X obj 888 470 *~ 0;
#X msg 889 222 0;
#X msg 920 222 1;
#X obj 889 198 select 0 1;
#X obj 891 98 tgl 15 0 empty empty empty 17 7 0 10 -262144 -1 -1 0
1;
#X obj 889 259 + 12;
#X text 889 241 Oct.;
#X obj 853 155 bng 15 250 50 0 empty empty empty 17 7 0 10 -262144
-1 -1;
#X text 1001 99 b #;
#X text 1226 103 b #;
#X text 1111 102 b #;
#X obj 1093 117 hradio 15 1 0 3 empty empty empty 0 -8 0 10 -262144
-1 -1 0;
#X text 1274 412 13th;
#X obj 1208 118 hradio 15 1 0 3 empty empty empty 0 -8 0 10 -262144
-1 -1 2;
#X obj 985 115 hradio 15 1 0 3 empty empty empty 0 -8 0 10 -262144
-1 -1 1;
#X obj 985 141 select 0 1 2;
#X obj 1093 142 select 0 1 2;
#X msg 1093 168 17;
#X msg 1123 168 16;
#X msg 1153 168 18;
#X obj 1208 142 select 0 1 2;
#X msg 1208 168 22;
#X msg 1238 168 21;
#X msg 1268 168 23;
#X msg 985 167 14;
#X msg 1015 167 13;
#X msg 1045 167 15;
#X text 1317 80 5th;
#X text 1336 102 b #;
#X obj 1318 117 hradio 15 1 0 3 empty empty empty 0 -8 0 10 -262144
-1 -1 0;
#X obj 1318 141 select 0 1 2;
#X msg 1318 167 7;
#X msg 1348 167 6;
#X msg 1378 167 5;
#X text 740 471 7th / Root;
#X text 887 81 Root;
#X obj 268 229 + 60;
#X text 268 81 C D E F G A B;
#X msg 326 194 60;
#X msg 372 194 58;
#X text 270 61 Transposition;
#X obj 375 61 hradio 15 1 0 2 empty empty empty 0 -8 0 10 -262144 -1
-1 1;
#X obj 337 141 select 0 1;
#X text 373 43 C Bb;
#X obj 290 139 bng 15 250 50 0 empty empty empty 17 7 0 10 -262144
-1 -1;
#X obj 268 596 *~ 1;
#X obj 22 304 * 0.025;
#X obj 345 835 dac~;
#X obj 409 641 adc~;
#X obj 496 697 delwrite~ delayname 500;
#X obj 497 723 delread~ delayname 250;
#X obj 314 763 *~;
#X connect 1 0 155 1;
#X connect 2 0 156 0;
#X connect 3 0 36 0;
#X connect 6 0 5 0;
#X connect 6 0 5 1;
#X connect 8 0 7 0;
#X connect 8 0 7 1;
#X connect 9 0 155 0;
#X connect 10 0 9 0;
#X connect 10 0 9 1;
#X connect 12 0 11 0;
#X connect 12 0 11 1;
#X connect 14 0 35 0;
#X connect 16 0 6 0;
#X connect 17 0 8 0;
#X connect 18 0 12 0;
#X connect 19 0 24 0;
#X connect 19 0 23 0;
#X connect 19 0 104 0;
#X connect 19 0 35 0;
#X connect 20 0 21 0;
#X connect 20 0 22 0;
#X connect 20 0 105 0;
#X connect 20 0 35 0;
#X connect 21 0 18 1;
#X connect 22 0 17 1;
#X connect 23 0 17 1;
#X connect 24 0 18 1;
#X connect 27 0 28 0;
#X connect 27 0 34 0;
#X connect 27 0 107 0;
#X connect 27 0 35 0;
#X connect 28 0 18 1;
#X connect 30 0 31 0;
#X connect 30 0 32 0;
#X connect 30 0 106 0;
#X connect 30 0 35 0;
#X connect 31 0 18 1;
#X connect 32 0 17 1;
#X connect 34 0 17 1;
#X connect 35 0 146 0;
#X connect 36 0 2 0;
#X connect 36 0 156 0;
#X connect 37 0 42 0;
#X connect 37 0 41 0;
#X connect 37 0 49 0;
#X connect 37 0 35 0;
#X connect 38 0 39 0;
#X connect 38 0 40 0;
#X connect 38 0 48 0;
#X connect 38 0 35 0;
#X connect 39 0 18 1;
#X connect 40 0 17 1;
#X connect 41 0 17 1;
#X connect 42 0 18 1;
#X connect 43 0 51 0;
#X connect 43 0 52 0;
#X connect 43 0 50 0;
#X connect 43 0 35 0;
#X connect 44 0 53 0;
#X connect 44 0 55 0;
#X connect 44 0 56 0;
#X connect 44 0 35 0;
#X connect 48 0 16 1;
#X connect 49 0 16 1;
#X connect 50 0 16 1;
#X connect 51 0 18 1;
#X connect 52 0 17 1;
#X connect 53 0 18 1;
#X connect 55 0 17 1;
#X connect 56 0 16 1;
#X connect 58 0 60 0;
#X connect 58 0 61 0;
#X connect 58 0 59 0;
#X connect 58 0 35 0;
#X connect 59 0 18 1;
#X connect 60 0 17 1;
#X connect 61 0 16 1;
#X connect 62 0 64 0;
#X connect 62 0 65 0;
#X connect 62 0 66 0;
#X connect 62 0 35 0;
#X connect 64 0 18 1;
#X connect 65 0 17 1;
#X connect 66 0 16 1;
#X connect 72 0 76 0;
#X connect 73 0 72 0;
#X connect 73 0 72 1;
#X connect 75 0 79 0;
#X connect 75 0 117 0;
#X connect 77 0 76 1;
#X connect 78 0 76 1;
#X connect 79 0 77 0;
#X connect 79 0 92 0;
#X connect 79 1 78 0;
#X connect 79 1 92 0;
#X connect 82 0 102 0;
#X connect 83 0 89 0;
#X connect 83 0 117 0;
#X connect 84 0 86 0;
#X connect 85 0 84 0;
#X connect 85 0 84 1;
#X connect 87 0 86 1;
#X connect 88 0 86 1;
#X connect 89 0 87 0;
#X connect 89 0 90 0;
#X connect 89 1 88 0;
#X connect 89 1 90 0;
#X connect 90 0 85 0;
#X connect 92 0 73 0;
#X connect 93 0 94 0;
#X connect 94 0 95 0;
#X connect 94 0 146 1;
#X connect 95 0 35 0;
#X connect 97 0 99 0;
#X connect 98 0 97 0;
#X connect 98 0 97 1;
#X connect 100 0 99 1;
#X connect 101 0 99 1;
#X connect 102 0 100 0;
#X connect 102 0 103 0;
#X connect 102 1 101 0;
#X connect 102 1 103 0;
#X connect 103 0 98 0;
#X connect 104 0 16 1;
#X connect 105 0 16 1;
#X connect 106 0 16 1;
#X connect 107 0 16 1;
#X connect 108 0 110 0;
#X connect 109 0 108 0;
#X connect 109 0 108 1;
#X connect 111 0 110 1;
#X connect 112 0 110 1;
#X connect 113 0 111 0;
#X connect 113 0 115 0;
#X connect 113 1 112 0;
#X connect 113 1 115 0;
#X connect 114 0 113 0;
#X connect 114 0 117 0;
#X connect 115 0 109 0;
#X connect 117 0 35 0;
#X connect 121 0 126 0;
#X connect 121 0 117 0;
#X connect 123 0 130 0;
#X connect 123 0 117 0;
#X connect 124 0 125 0;
#X connect 124 0 117 0;
#X connect 125 0 134 0;
#X connect 125 1 135 0;
#X connect 125 2 136 0;
#X connect 126 0 127 0;
#X connect 126 1 128 0;
#X connect 126 2 129 0;
#X connect 127 0 90 1;
#X connect 128 0 90 1;
#X connect 129 0 90 1;
#X connect 130 0 131 0;
#X connect 130 1 132 0;
#X connect 130 2 133 0;
#X connect 131 0 103 1;
#X connect 132 0 103 1;
#X connect 133 0 103 1;
#X connect 134 0 92 1;
#X connect 135 0 92 1;
#X connect 136 0 92 1;
#X connect 139 0 140 0;
#X connect 139 0 117 0;
#X connect 140 0 141 0;
#X connect 140 1 142 0;
#X connect 140 2 143 0;
#X connect 141 0 17 1;
#X connect 142 0 17 1;
#X connect 143 0 17 1;
#X connect 146 0 10 0;
#X connect 146 0 16 0;
#X connect 146 0 17 0;
#X connect 146 0 18 0;
#X connect 146 0 90 0;
#X connect 146 0 92 0;
#X connect 146 0 103 0;
#X connect 146 0 115 0;
#X connect 148 0 146 1;
#X connect 149 0 146 1;
#X connect 151 0 152 0;
#X connect 152 0 148 0;
#X connect 152 0 154 0;
#X connect 152 1 149 0;
#X connect 152 1 154 0;
#X connect 154 0 14 0;
#X connect 154 0 93 0;
#X connect 155 0 161 1;
#X connect 156 0 1 0;
#X connect 156 0 1 1;
#X connect 161 0 157 0;
#X connect 161 0 157 1;
