#N canvas 18 33 1262 694 10;
#X obj 70 171 metro 0;
#X obj 24 1603 loadbang;
#X obj 120 48 hsl 128 15 0 127 0 0 empty empty empty -2 -8 0 10 -262144
-1 -1 7300 1;
#X floatatom 117 99 5 0 0 0 - - -, f 5;
#X obj 117 72 expr floor($f1*(220.0/127) + 20) \;;
#X obj 117 123 expr 30000/$f1 \;;
#X obj 48 525 *~;
#X obj 107 411 osc~ 800;
#X obj 42 554 dac~;
#X obj 53 437 vline~;
#X obj 71 100 tgl 15 0 empty empty empty 17 7 0 10 -262144 -1 -1 0
1;
#X obj 218 411 osc~ 600;
#X obj 181 439 +~;
#X obj 107 469 +~;
#X obj 107 493 /~ 3;
#X msg 239 367 700;
#X obj 162 259 float;
#X obj 214 259 + 1;
#X obj 162 286 mod 2;
#X obj 162 326 select 0 1;
#X msg 291 385 1000;
#X msg 158 367 800;
#X obj 1047 165 metro 0;
#X obj 1047 192 float;
#X obj 1088 192 + 1;
#X obj 1047 219 mod 16;
#X obj 877 256 select 0 1 2 3 4 5 6 7 8 9 10 11 12 13 14 15;
#X msg 72 232 1 10 \, 0 10 10;
#X msg 1047 686 1 10 \, 0 10 10;
#X msg 1047 686 1 10 \, 0 10 10;
#X obj 1047 712 vline~;
#X obj 1046 1130 *~;
#X msg 733 568 440;
#X msg 702 568 440;
#X msg 794 568 440;
#X msg 763 568 440;
#X msg 744 550 440;
#X msg 713 550 440;
#X msg 805 550 440;
#X msg 774 550 440;
#X msg 755 531 440;
#X msg 723 531 440;
#X msg 816 531 440;
#X msg 785 531 440;
#X obj 1103 820 osc~ 440;
#X obj 1065 985 osc~ 440;
#X obj 1084 903 osc~ 440;
#X obj 714 -15 tgl 15 0 empty empty empty 17 7 0 10 -262144 -1 -1 0
1;
#X obj 690 485 select 0 1;
#X obj 723 511 bng 15 250 50 0 empty empty empty 17 7 0 10 -262144
-1 -1;
#X obj 722 461 select 0 1;
#X obj 755 511 bng 15 250 50 0 empty empty empty 17 7 0 10 -262144
-1 -1;
#X obj 751 438 select 0 1;
#X obj 785 511 bng 15 250 50 0 empty empty empty 17 7 0 10 -262144
-1 -1;
#X obj 816 511 bng 15 250 50 0 empty empty empty 17 7 0 10 -262144
-1 -1;
#X obj 782 485 select 0 1;
#X msg 921 568 440;
#X msg 890 568 440;
#X msg 982 568 440;
#X msg 951 568 440;
#X msg 932 550 440;
#X msg 901 550 440;
#X msg 993 550 440;
#X msg 962 550 440;
#X msg 943 531 440;
#X msg 911 531 440;
#X msg 1004 531 440;
#X msg 973 531 440;
#X obj 878 485 select 0 1;
#X obj 911 511 bng 15 250 50 0 empty empty empty 17 7 0 10 -262144
-1 -1;
#X obj 910 461 select 0 1;
#X obj 943 511 bng 15 250 50 0 empty empty empty 17 7 0 10 -262144
-1 -1;
#X obj 939 438 select 0 1;
#X obj 973 511 bng 15 250 50 0 empty empty empty 17 7 0 10 -262144
-1 -1;
#X obj 1004 511 bng 15 250 50 0 empty empty empty 17 7 0 10 -262144
-1 -1;
#X obj 970 485 select 0 1;
#X msg 1119 567 440;
#X msg 1088 567 440;
#X msg 1180 567 440;
#X msg 1149 567 440;
#X msg 1130 549 440;
#X msg 1099 549 440;
#X msg 1191 549 440;
#X msg 1160 549 440;
#X msg 1141 530 440;
#X msg 1109 530 440;
#X msg 1202 530 440;
#X msg 1171 530 440;
#X obj 1076 484 select 0 1;
#X obj 1109 510 bng 15 250 50 0 empty empty empty 17 7 0 10 -262144
-1 -1;
#X obj 1108 460 select 0 1;
#X obj 1141 510 bng 15 250 50 0 empty empty empty 17 7 0 10 -262144
-1 -1;
#X obj 1137 437 select 0 1;
#X obj 1171 510 bng 15 250 50 0 empty empty empty 17 7 0 10 -262144
-1 -1;
#X obj 1202 510 bng 15 250 50 0 empty empty empty 17 7 0 10 -262144
-1 -1;
#X obj 1168 484 select 0 1;
#X msg 1307 567 440;
#X msg 1276 567 440;
#X msg 1368 567 440;
#X msg 1337 567 440;
#X msg 1318 549 440;
#X msg 1287 549 440;
#X msg 1379 549 440;
#X msg 1348 549 440;
#X msg 1329 530 440;
#X msg 1297 530 440;
#X msg 1390 530 440;
#X msg 1359 530 440;
#X obj 1264 484 select 0 1;
#X obj 1297 510 bng 15 250 50 0 empty empty empty 17 7 0 10 -262144
-1 -1;
#X obj 1296 460 select 0 1;
#X obj 1329 510 bng 15 250 50 0 empty empty empty 17 7 0 10 -262144
-1 -1;
#X obj 1325 437 select 0 1;
#X obj 1359 510 bng 15 250 50 0 empty empty empty 17 7 0 10 -262144
-1 -1;
#X obj 1390 510 bng 15 250 50 0 empty empty empty 17 7 0 10 -262144
-1 -1;
#X obj 1356 484 select 0 1;
#X obj 1083 1018 +~;
#X obj 1065 1048 +~;
#X obj 1065 1075 /~ 3;
#X obj 1084 882 bng 15 250 50 0 empty empty empty 17 7 0 10 -262144
-1 -1;
#X obj 1065 965 bng 15 250 50 0 empty empty empty 17 7 0 10 -262144
-1 -1;
#X obj 1103 799 bng 15 250 50 0 empty empty empty 17 7 0 10 -262144
-1 -1;
#X msg 690 365 0;
#X obj 690 391 + 0;
#X obj 745 -15 tgl 15 0 empty empty empty 17 7 0 10 -262144 -1 -1 0
1;
#X msg 722 365 0;
#X obj 722 391 + 0;
#X obj 775 -15 tgl 15 0 empty empty empty 17 7 0 10 -262144 -1 -1 0
1;
#X msg 751 365 0;
#X obj 751 391 + 0;
#X obj 806 -15 tgl 15 0 empty empty empty 17 7 0 10 -262144 -1 -1 0
1;
#X msg 782 365 0;
#X obj 782 391 + 0;
#X obj 902 -15 tgl 15 0 empty empty empty 17 7 0 10 -262144 -1 -1 0
1;
#X msg 878 365 0;
#X obj 878 391 + 0;
#X obj 933 -15 tgl 15 0 empty empty empty 17 7 0 10 -262144 -1 -1 0
1;
#X msg 910 365 0;
#X obj 910 391 + 0;
#X obj 963 -15 tgl 15 0 empty empty empty 17 7 0 10 -262144 -1 -1 0
1;
#X msg 939 365 0;
#X obj 939 391 + 0;
#X obj 994 -15 tgl 15 0 empty empty empty 17 7 0 10 -262144 -1 -1 0
1;
#X msg 970 365 0;
#X obj 970 391 + 0;
#X obj 1100 -15 tgl 15 0 empty empty empty 17 7 0 10 -262144 -1 -1
0 1;
#X msg 1076 365 0;
#X obj 1076 391 + 0;
#X obj 1131 -15 tgl 15 0 empty empty empty 17 7 0 10 -262144 -1 -1
0 1;
#X msg 1108 365 0;
#X obj 1108 391 + 0;
#X obj 1161 -15 tgl 15 0 empty empty empty 17 7 0 10 -262144 -1 -1
0 1;
#X msg 1137 365 0;
#X obj 1137 391 + 0;
#X obj 1192 -15 tgl 15 0 empty empty empty 17 7 0 10 -262144 -1 -1
0 1;
#X msg 1168 365 0;
#X obj 1168 391 + 0;
#X msg 1264 365 0;
#X obj 1264 391 + 0;
#X msg 1296 365 0;
#X obj 1296 391 + 0;
#X msg 1325 365 0;
#X obj 1325 391 + 0;
#X msg 1356 365 0;
#X obj 1356 391 + 0;
#X obj 1269 -15 tgl 15 0 empty empty empty 17 7 0 10 -262144 -1 -1
0 1;
#X obj 1300 -15 tgl 15 0 empty empty empty 17 7 0 10 -262144 -1 -1
0 1;
#X obj 1330 -15 tgl 15 0 empty empty empty 17 7 0 10 -262144 -1 -1
0 1;
#X obj 1361 -15 tgl 15 0 empty empty empty 17 7 0 10 -262144 -1 -1
0 1;
#X obj 1046 1218 *~ 0;
#X obj 689 620 bng 15 250 50 0 empty empty empty 17 7 0 10 -262144
-1 -1;
#X msg 689 645 0, f 4;
#X obj 878 623 bng 15 250 50 0 empty empty empty 17 7 0 10 -262144
-1 -1;
#X msg 878 648 0, f 4;
#X obj 1075 624 bng 15 250 50 0 empty empty empty 17 7 0 10 -262144
-1 -1;
#X msg 1075 649 0, f 4;
#X obj 1264 622 bng 15 250 50 0 empty empty empty 17 7 0 10 -262144
-1 -1;
#X msg 1264 647 0, f 4;
#X text 1090 1219 Gain set to 0 or 1;
#X text 1085 1131 Multiply 3 added and normalized signals by the line
envelope;
#X text 1107 1075 Added and normalized signals;
#X text 1157 687 Envelope parameters;
#X text 704 -97 X Means Beat is ON;
#X text 1174 818 Reudementary synthesis with 3 osc~ objects;
#X obj 516 -16 hsl 128 15 0 127 0 0 empty empty empty -2 -8 0 10 -262144
-1 -1 0 1;
#X floatatom 514 35 5 0 0 0 - - -, f 5;
#X obj 544 11 expr floor($f1*(220.0/127) + 20) \;;
#X text 481 35 BPM;
#X text 713 -40 1;
#X text 903 -35 2;
#X text 1101 -41 3;
#X text 1270 -44 4;
#X obj 1047 139 expr 60000/$f1 \;;
#X text 3 -88 Top Left;
#X text 1742 1632 Bottom Right;
#X text 22 45 Tempo Slider;
#X text 420 -16 Tempo Slider;
#X text 86 -12 <<<Metronome for Bach>>>;
#X text 156 98 BPM;
#X text 39 98 I/O;
#X msg 189 367 1700;
#X connect 0 0 16 0;
#X connect 0 0 27 0;
#X connect 2 0 4 0;
#X connect 3 0 5 0;
#X connect 4 0 3 0;
#X connect 5 0 0 1;
#X connect 6 0 8 0;
#X connect 6 0 8 1;
#X connect 7 0 13 0;
#X connect 9 0 6 0;
#X connect 10 0 0 0;
#X connect 11 0 12 0;
#X connect 12 0 13 1;
#X connect 13 0 14 0;
#X connect 14 0 6 1;
#X connect 15 0 11 1;
#X connect 15 0 11 0;
#X connect 16 0 17 0;
#X connect 16 0 18 0;
#X connect 17 0 16 0;
#X connect 18 0 19 0;
#X connect 19 0 21 0;
#X connect 19 0 15 0;
#X connect 19 1 200 0;
#X connect 19 1 20 0;
#X connect 20 0 11 1;
#X connect 20 0 11 0;
#X connect 21 0 7 1;
#X connect 21 0 7 0;
#X connect 22 0 23 0;
#X connect 22 0 28 0;
#X connect 23 0 24 0;
#X connect 23 0 25 0;
#X connect 24 0 23 0;
#X connect 25 0 26 0;
#X connect 26 0 122 0;
#X connect 26 1 125 0;
#X connect 26 2 128 0;
#X connect 26 3 131 0;
#X connect 26 4 134 0;
#X connect 26 5 137 0;
#X connect 26 6 140 0;
#X connect 26 7 143 0;
#X connect 26 8 146 0;
#X connect 26 9 149 0;
#X connect 26 10 152 0;
#X connect 26 11 155 0;
#X connect 26 12 157 0;
#X connect 26 13 159 0;
#X connect 26 14 161 0;
#X connect 26 15 163 0;
#X connect 27 0 9 0;
#X connect 28 0 30 0;
#X connect 30 0 31 0;
#X connect 31 0 169 0;
#X connect 32 0 120 0;
#X connect 33 0 120 0;
#X connect 34 0 120 0;
#X connect 35 0 120 0;
#X connect 36 0 119 0;
#X connect 37 0 119 0;
#X connect 38 0 119 0;
#X connect 39 0 119 0;
#X connect 40 0 121 0;
#X connect 41 0 121 0;
#X connect 42 0 121 0;
#X connect 43 0 121 0;
#X connect 44 0 116 1;
#X connect 45 0 117 0;
#X connect 46 0 116 0;
#X connect 47 0 123 1;
#X connect 48 0 170 0;
#X connect 48 1 49 0;
#X connect 49 0 33 0;
#X connect 49 0 37 0;
#X connect 49 0 41 0;
#X connect 50 0 170 0;
#X connect 50 1 51 0;
#X connect 51 0 40 0;
#X connect 51 0 36 0;
#X connect 51 0 32 0;
#X connect 52 0 170 0;
#X connect 52 1 53 0;
#X connect 53 0 43 0;
#X connect 53 0 39 0;
#X connect 53 0 35 0;
#X connect 54 0 42 0;
#X connect 54 0 38 0;
#X connect 54 0 34 0;
#X connect 55 0 170 0;
#X connect 55 1 54 0;
#X connect 56 0 120 0;
#X connect 57 0 120 0;
#X connect 58 0 120 0;
#X connect 59 0 120 0;
#X connect 60 0 119 0;
#X connect 61 0 119 0;
#X connect 62 0 119 0;
#X connect 63 0 119 0;
#X connect 64 0 121 0;
#X connect 65 0 121 0;
#X connect 66 0 121 0;
#X connect 67 0 121 0;
#X connect 68 0 172 0;
#X connect 68 1 69 0;
#X connect 69 0 57 0;
#X connect 69 0 61 0;
#X connect 69 0 65 0;
#X connect 70 0 172 0;
#X connect 70 1 71 0;
#X connect 71 0 64 0;
#X connect 71 0 60 0;
#X connect 71 0 56 0;
#X connect 72 0 172 0;
#X connect 72 1 73 0;
#X connect 73 0 67 0;
#X connect 73 0 63 0;
#X connect 73 0 59 0;
#X connect 74 0 66 0;
#X connect 74 0 62 0;
#X connect 74 0 58 0;
#X connect 75 0 172 0;
#X connect 75 1 74 0;
#X connect 76 0 120 0;
#X connect 77 0 120 0;
#X connect 78 0 120 0;
#X connect 79 0 120 0;
#X connect 80 0 119 0;
#X connect 81 0 119 0;
#X connect 82 0 119 0;
#X connect 83 0 119 0;
#X connect 84 0 121 0;
#X connect 85 0 121 0;
#X connect 86 0 121 0;
#X connect 87 0 121 0;
#X connect 88 0 174 0;
#X connect 88 1 89 0;
#X connect 89 0 77 0;
#X connect 89 0 81 0;
#X connect 89 0 85 0;
#X connect 90 1 91 0;
#X connect 91 0 84 0;
#X connect 91 0 80 0;
#X connect 91 0 76 0;
#X connect 92 1 93 0;
#X connect 93 0 87 0;
#X connect 93 0 83 0;
#X connect 93 0 79 0;
#X connect 94 0 86 0;
#X connect 94 0 82 0;
#X connect 94 0 78 0;
#X connect 95 1 94 0;
#X connect 96 0 120 0;
#X connect 97 0 120 0;
#X connect 98 0 120 0;
#X connect 99 0 120 0;
#X connect 100 0 119 0;
#X connect 101 0 121 0;
#X connect 102 0 119 0;
#X connect 103 0 119 0;
#X connect 104 0 121 0;
#X connect 106 0 121 0;
#X connect 107 0 121 0;
#X connect 108 0 176 0;
#X connect 108 1 109 0;
#X connect 109 0 97 0;
#X connect 109 0 101 0;
#X connect 109 0 105 0;
#X connect 110 1 111 0;
#X connect 111 0 104 0;
#X connect 111 0 100 0;
#X connect 111 0 96 0;
#X connect 112 1 113 0;
#X connect 113 0 107 0;
#X connect 113 0 103 0;
#X connect 113 0 99 0;
#X connect 114 0 106 0;
#X connect 114 0 102 0;
#X connect 114 0 98 0;
#X connect 115 1 114 0;
#X connect 116 0 117 1;
#X connect 117 0 118 0;
#X connect 118 0 31 1;
#X connect 119 0 46 0;
#X connect 119 0 46 1;
#X connect 120 0 45 0;
#X connect 120 0 45 1;
#X connect 121 0 44 0;
#X connect 121 0 44 1;
#X connect 122 0 123 0;
#X connect 123 0 48 0;
#X connect 124 0 126 1;
#X connect 125 0 126 0;
#X connect 126 0 50 0;
#X connect 127 0 129 1;
#X connect 128 0 129 0;
#X connect 129 0 52 0;
#X connect 130 0 132 1;
#X connect 131 0 132 0;
#X connect 132 0 55 0;
#X connect 133 0 135 1;
#X connect 134 0 135 0;
#X connect 135 0 68 0;
#X connect 136 0 138 1;
#X connect 137 0 138 0;
#X connect 138 0 70 0;
#X connect 139 0 141 1;
#X connect 140 0 141 0;
#X connect 141 0 72 0;
#X connect 142 0 144 1;
#X connect 143 0 144 0;
#X connect 144 0 75 0;
#X connect 145 0 147 1;
#X connect 146 0 147 0;
#X connect 147 0 88 0;
#X connect 148 0 150 1;
#X connect 149 0 150 0;
#X connect 150 0 90 0;
#X connect 151 0 153 1;
#X connect 152 0 153 0;
#X connect 153 0 92 0;
#X connect 154 0 156 1;
#X connect 155 0 156 0;
#X connect 156 0 95 0;
#X connect 157 0 158 0;
#X connect 158 0 108 0;
#X connect 159 0 160 0;
#X connect 160 0 110 0;
#X connect 161 0 162 0;
#X connect 162 0 112 0;
#X connect 163 0 164 0;
#X connect 164 0 115 0;
#X connect 165 0 157 0;
#X connect 166 0 159 0;
#X connect 167 0 161 0;
#X connect 168 0 163 0;
#X connect 170 0 171 0;
#X connect 171 0 169 1;
#X connect 171 0 169 0;
#X connect 172 0 173 0;
#X connect 173 0 169 0;
#X connect 173 0 169 1;
#X connect 174 0 175 0;
#X connect 175 0 169 0;
#X connect 175 0 169 1;
#X connect 176 0 177 0;
#X connect 177 0 169 0;
#X connect 177 0 169 1;
#X connect 184 0 186 0;
#X connect 185 0 192 0;
#X connect 186 0 185 0;
#X connect 192 0 22 0;
#X connect 200 0 7 1;
#X connect 200 0 7 0;
