#N canvas 16 23 1277 704 10;
#X obj 493 672 dac~;
#X obj 59 35 adc~;
#X obj 59 212 mtof;
#X obj 195 337 / 2;
#X obj 195 365 osc~;
#X obj 59 61 sigmund~ -hop 4096 notes env;
#X obj 59 115 int;
#X obj 59 89 + 0.4999;
#X obj 489 546 *~;
#X obj 862 182 / 100;
#X obj 195 311 * 3;
#X obj 862 232 select 0 1;
#X msg 862 258 0;
#X msg 895 258 1;
#X obj 862 207 > 0.7;
#X text 97 35 Input;
#X obj 104 364 osc~;
#X text 101 183 Root;
#X floatatom 142 183 5 0 0 0 - - -, f 5;
#X obj 195 410 *~;
#X floatatom 241 183 5 0 0 0 - - -, f 5;
#X obj 240 382 / 100;
#X obj 103 420 *~;
#X obj 139 381 / 100;
#X obj 320 366 osc~;
#X obj 320 411 *~;
#X floatatom 433 179 5 0 0 0 - - -, f 5;
#X obj 364 384 / 100;
#X text 352 178 3rd;
#X text 204 183 5th;
#X obj 387 193 hradio 15 1 0 2 empty empty empty 0 -8 0 10 -262144
-1 -1 0;
#X text 386 177 m /M;
#X obj 387 219 select 0 1;
#X msg 387 247 6;
#X msg 417 247 5;
#X msg 420 280 5;
#X msg 450 280 4;
#X obj 320 312 * 5;
#X obj 320 338 / 4;
#X obj 320 366 osc~;
#X obj 320 411 *~;
#X obj 364 384 / 100;
#X obj 320 312 * 5;
#X obj 320 338 / 4;
#X obj 489 364 osc~;
#X obj 489 409 *~;
#X floatatom 614 192 5 0 0 0 - - -, f 5;
#X obj 533 382 / 100;
#X obj 556 191 hradio 15 1 0 3 empty empty empty 0 -8 0 10 -262144
-1 -1 0;
#X obj 489 336 / 4;
#X obj 489 364 osc~;
#X obj 489 409 *~;
#X obj 533 382 / 100;
#X obj 489 336 / 4;
#X text 521 176 7th;
#X text 555 175 x m /M;
#X obj 556 217 select 0 1 2;
#X msg 586 245 1;
#X msg 556 245 0;
#X obj 489 310 *;
#X obj 489 310 * 0;
#X msg 589 278 16;
#X msg 619 278 9;
#X msg 636 247 15;
#X msg 666 247 8;
#X floatatom 59 183 5 0 0 0 - - -, f 5;
#X obj 545 594 delwrite~ delayname 500;
#X obj 545 625 delread~ delayname 500;
#X msg 422 110 0;
#X msg 387 110 1;
#X obj 387 56 bng 15 250 50 0 empty empty empty 17 7 0 10 -262144 -1
-1;
#X msg 487 109 1;
#X obj 487 57 bng 15 250 50 0 empty empty empty 17 7 0 10 -262144 -1
-1;
#X msg 588 108 1;
#X obj 588 56 bng 15 250 50 0 empty empty empty 17 7 0 10 -262144 -1
-1;
#X msg 727 107 0;
#X obj 692 56 bng 15 250 50 0 empty empty empty 17 7 0 10 -262144 -1
-1;
#X msg 522 109 2;
#X msg 623 108 1;
#X msg 692 107 0;
#X obj 782 55 bng 15 250 50 0 empty empty empty 17 7 0 10 -262144 -1
-1;
#X msg 783 106 0;
#X obj 866 57 bng 15 250 50 0 empty empty empty 17 7 0 10 -262144 -1
-1;
#X msg 818 106 2;
#X text 830 57 min7;
#X msg 866 105 0;
#X msg 901 105 1;
#X text 544 56 Dom 7;
#X text 445 57 Maj7;
#X text 354 56 Maj;
#X text 658 56 min;
#X text 726 54 min/maj;
#X connect 1 0 5 0;
#X connect 2 0 10 0;
#X connect 2 0 16 0;
#X connect 2 0 16 1;
#X connect 2 0 37 0;
#X connect 2 0 59 0;
#X connect 3 0 4 0;
#X connect 3 0 4 1;
#X connect 4 0 19 0;
#X connect 5 0 7 0;
#X connect 5 1 9 0;
#X connect 6 0 65 0;
#X connect 7 0 6 0;
#X connect 8 0 66 0;
#X connect 8 0 0 0;
#X connect 8 0 0 1;
#X connect 9 0 14 0;
#X connect 10 0 3 0;
#X connect 11 0 12 0;
#X connect 11 1 13 0;
#X connect 12 0 8 1;
#X connect 13 0 8 1;
#X connect 14 0 11 0;
#X connect 16 0 22 0;
#X connect 18 0 23 0;
#X connect 19 0 8 0;
#X connect 20 0 21 0;
#X connect 21 0 19 1;
#X connect 22 0 8 0;
#X connect 23 0 22 1;
#X connect 24 0 25 0;
#X connect 25 0 8 0;
#X connect 26 0 27 0;
#X connect 27 0 25 1;
#X connect 30 0 32 0;
#X connect 32 0 33 0;
#X connect 32 0 34 0;
#X connect 32 1 35 0;
#X connect 32 1 36 0;
#X connect 33 0 37 1;
#X connect 34 0 38 1;
#X connect 35 0 37 1;
#X connect 36 0 38 1;
#X connect 37 0 38 0;
#X connect 38 0 24 0;
#X connect 38 0 24 1;
#X connect 39 0 40 0;
#X connect 41 0 40 1;
#X connect 42 0 43 0;
#X connect 43 0 39 0;
#X connect 43 0 39 1;
#X connect 44 0 45 0;
#X connect 45 0 8 0;
#X connect 46 0 47 0;
#X connect 47 0 45 1;
#X connect 48 0 56 0;
#X connect 49 0 44 0;
#X connect 49 0 44 1;
#X connect 50 0 51 0;
#X connect 52 0 51 1;
#X connect 53 0 50 0;
#X connect 53 0 50 1;
#X connect 56 0 58 0;
#X connect 56 0 57 0;
#X connect 56 1 61 0;
#X connect 56 1 62 0;
#X connect 56 2 63 0;
#X connect 56 2 64 0;
#X connect 57 0 49 1;
#X connect 58 0 59 1;
#X connect 59 0 49 0;
#X connect 60 0 53 0;
#X connect 61 0 59 1;
#X connect 62 0 49 1;
#X connect 63 0 59 1;
#X connect 64 0 49 1;
#X connect 65 0 2 0;
#X connect 68 0 48 0;
#X connect 69 0 30 0;
#X connect 70 0 69 0;
#X connect 70 0 68 0;
#X connect 71 0 30 0;
#X connect 71 0 48 0;
#X connect 72 0 71 0;
#X connect 72 0 77 0;
#X connect 73 0 30 0;
#X connect 74 0 73 0;
#X connect 74 0 78 0;
#X connect 75 0 48 0;
#X connect 76 0 79 0;
#X connect 76 0 75 0;
#X connect 77 0 48 0;
#X connect 78 0 48 0;
#X connect 79 0 30 0;
#X connect 80 0 81 0;
#X connect 80 0 83 0;
#X connect 81 0 30 0;
#X connect 82 0 85 0;
#X connect 82 0 86 0;
#X connect 83 0 48 0;
#X connect 85 0 30 0;
#X connect 86 0 48 0;
