#N canvas 194 55 963 556 10;
#X obj 239 99 hradio 15 1 0 12 empty empty empty 0 -8 0 10 -262144
-1 -1 3;
#X obj 239 321 osc~ 440;
#X obj 239 192 expr 440*(pow(2 \, (($f1-69)/12)));
#X text 331 80 G;
#X text 287 79 E;
#X text 406 80 C;
#X obj 239 151 + 47;
#X msg 492 98 35;
#X msg 455 97 47;
#X obj 330 380 *~;
#X obj 354 352 line~;
#X msg 354 296 0.1 100;
#X msg 373 321 0 100;
#X text 425 291 on;
#X text 422 320 off;
#X text 411 349 envelope;
#X text 411 362 generator;
#X text 338 271 amplitude controls:;
#X text 328 432 audio output;
#X obj 330 408 dac~;
#X connect 0 0 6 0;
#X connect 1 0 9 0;
#X connect 2 0 1 0;
#X connect 2 0 1 1;
#X connect 6 0 2 0;
#X connect 7 0 6 1;
#X connect 8 0 6 1;
#X connect 9 0 19 0;
#X connect 9 0 19 1;
#X connect 10 0 9 1;
#X connect 11 0 10 0;
#X connect 12 0 10 0;
