#N canvas 640 31 640 692 10;
#X obj 48 89 hradio 15 1 0 12 empty empty empty 0 -8 0 10 -262144 -1
-1 0;
#X obj 48 387 osc~ 440;
#X obj 48 258 expr 440*(pow(2 \, (($f1-69)/12)));
#X text 140 70 G;
#X text 96 69 E;
#X text 215 70 C;
#X obj 48 217 + 47;
#X obj 48 439 *~;
#X obj 150 385 line~;
#X msg 150 329 0.1 100;
#X text 207 382 envelope;
#X text 207 395 generator;
#X text 54 517 audio output;
#X obj 48 491 dac~;
#X msg 169 354 0 100;
#X text 402 65 OFF;
#X text 375 65 ON;
#X obj 378 90 bng 15 250 50 0 empty empty empty 17 7 0 10 -262144 -1
-1;
#X obj 404 90 bng 15 250 50 0 empty empty empty 17 7 0 10 -262144 -1
-1;
#X text 283 62 Octave;
#X msg 272 88 35;
#X msg 309 89 47;
#X connect 0 0 6 0;
#X connect 1 0 7 0;
#X connect 2 0 1 0;
#X connect 2 0 1 1;
#X connect 6 0 2 0;
#X connect 7 0 13 0;
#X connect 7 0 13 1;
#X connect 8 0 7 1;
#X connect 9 0 8 0;
#X connect 14 0 8 0;
#X connect 17 0 9 0;
#X connect 18 0 14 0;
#X connect 20 0 6 1;
#X connect 21 0 6 1;
#X coords 0 0 1 1 85 60 0;
